<svg xmlns="http://www.w3.org/2000/svg" version="1.1" xmlns:xlink="http://www.w3.org/1999/xlink" xmlns:svgjs="http://svgjs.com/svgjs" width="1440" height="560" preserveAspectRatio="none" viewBox="0 0 1440 560"><g mask="url(&quot;#SvgjsMask1130&quot;)" fill="none"><path d="M696.06 387.8L705.9 396 700.06 407.4 709.89 415.6 704.05 426.99 713.89 435.19 708.05 446.59M688.23 389.4L698.06 397.6 692.22 408.99 702.06 417.19 696.21 428.59 706.05 436.79 700.21 448.19M680.39 390.99L690.22 399.19 684.38 410.59 694.22 418.79 688.37 430.19 698.21 438.39 692.37 449.79" stroke="rgba(251, 187, 71, 1)" stroke-width="2.33" stroke-dasharray="3, 2"></path><circle r="46.666666666666664" cx="230.15" cy="373.34" stroke="rgba(251, 187, 71, 1)" stroke-width="1" stroke-dasharray="2, 2"></circle><path d="M1226.44 48.13L1226.04 60.93 1213.47 63.36 1213.07 76.16 1200.5 78.58 1200.1 91.38 1187.53 93.8" stroke="rgba(251, 187, 71, 1)" stroke-width="1" stroke-dasharray="4, 4"></path><path d="M325.87 255.39a5.6 5.6 0 1 0-0.68 11.18 5.6 5.6 0 1 0 0.68-11.18zM324.9 271.36a5.6 5.6 0 1 0-0.68 11.18 5.6 5.6 0 1 0 0.68-11.18zM323.93 287.33a5.6 5.6 0 1 0-0.68 11.18 5.6 5.6 0 1 0 0.68-11.18zM322.96 303.3a5.6 5.6 0 1 0-0.67 11.18 5.6 5.6 0 1 0 0.67-11.18zM311.84 222.48a5.6 5.6 0 1 0-0.68 11.18 5.6 5.6 0 1 0 0.68-11.18zM310.87 238.45a5.6 5.6 0 1 0-0.68 11.18 5.6 5.6 0 1 0 0.68-11.18zM309.9 254.42a5.6 5.6 0 1 0-0.68 11.18 5.6 5.6 0 1 0 0.68-11.18zM308.93 270.39a5.6 5.6 0 1 0-0.68 11.18 5.6 5.6 0 1 0 0.68-11.18z" stroke="rgba(251, 187, 71, 1)" stroke-width="1"></path><rect width="264" height="264" clip-path="url(&quot;#SvgjsClipPath1131&quot;)" x="994.04" y="-116.08" fill="url(#SvgjsPattern1132)" transform="rotate(88.26, 1126.04, 15.92)"></rect><path d="M88.63 555.61a5.6 5.6 0 1 0-8.41-7.4 5.6 5.6 0 1 0 8.41 7.4zM76.62 545.04a5.6 5.6 0 1 0-8.4-7.41 5.6 5.6 0 1 0 8.4 7.41zM64.62 534.46a5.6 5.6 0 1 0-8.4-7.41 5.6 5.6 0 1 0 8.4 7.41zM52.62 523.88a5.6 5.6 0 1 0-8.41-7.41 5.6 5.6 0 1 0 8.41 7.41zM123.21 564.77a5.6 5.6 0 1 0-8.4-7.41 5.6 5.6 0 1 0 8.4 7.41zM111.21 554.19a5.6 5.6 0 1 0-8.4-7.41 5.6 5.6 0 1 0 8.4 7.41zM99.21 543.61a5.6 5.6 0 1 0-8.41-7.4 5.6 5.6 0 1 0 8.41 7.4zM87.2 533.03a5.6 5.6 0 1 0-8.4-7.4 5.6 5.6 0 1 0 8.4 7.4z" fill="rgba(251, 187, 71, 1)"></path><path d="M1444.41 476.71000000000004 L1455.18 366.83000000000004L1375.7010960291802 347.6760960291802z" stroke="rgba(19, 32, 60, 1)" stroke-width="1.41" stroke-dasharray="2, 2"></path><path d="M1136.3200000000002 308.47 L1120.5800000000002 312.07L1139.2994308331818 321.1194308331815z" fill="rgba(19, 32, 60, 1)"></path><rect width="124.6" height="124.6" clip-path="url(&quot;#SvgjsClipPath1133&quot;)" x="646.3" y="-56.01" fill="url(#SvgjsPattern1134)" transform="rotate(48.53, 708.6, 6.29)"></rect><circle r="46.666666666666664" cx="1427.56" cy="465.99" stroke="rgba(19, 32, 60, 1)" stroke-width="1.64" stroke-dasharray="4, 4"></circle><rect width="168" height="168" clip-path="url(&quot;#SvgjsClipPath1135&quot;)" x="1010.7" y="422.43" fill="url(#SvgjsPattern1136)" transform="rotate(291.33, 1094.7, 506.43)"></rect><path d="M775.9300000000001 612.0799999999999 L907.48 720.5L728.7472015359793 779.2477984640207z" fill="rgba(19, 32, 60, 1)"></path></g><defs><mask id="SvgjsMask1130"><rect width="1440" height="560" fill="#ffffff"></rect></mask><pattern x="0" y="0" width="264" height="6" patternUnits="userSpaceOnUse" id="SvgjsPattern1132"><rect width="264" height="3" x="0" y="0" fill="rgba(19, 32, 60, 1)"></rect><rect width="264" height="3" x="0" y="3" fill="rgba(0, 0, 0, 0)"></rect></pattern><clipPath id="SvgjsClipPath1131"><circle r="66" cx="1126.04" cy="15.92"></circle></clipPath><pattern x="0" y="0" width="124.6" height="12.46" patternUnits="userSpaceOnUse" id="SvgjsPattern1134"><rect width="124.6" height="6.23" x="0" y="0" fill="rgba(251, 187, 71, 1)"></rect><rect width="124.6" height="6.23" x="0" y="6.23" fill="rgba(0, 0, 0, 0)"></rect></pattern><clipPath id="SvgjsClipPath1133"><circle r="31.15" cx="708.6" cy="6.29"></circle></clipPath><pattern x="0" y="0" width="6" height="6" patternUnits="userSpaceOnUse" id="SvgjsPattern1136"><path d="M3 1L3 5M1 3L5 3" stroke="rgba(19, 32, 60, 1)" fill="none" stroke-width="1.03"></path></pattern><clipPath id="SvgjsClipPath1135"><circle r="42" cx="1094.7" cy="506.43"></circle></clipPath></defs></svg>